<svg width="106" height="106" viewBox="0 0 106 106" fill="none" xmlns="http://www.w3.org/2000/svg">
<path d="M97.1688 48.583C97.1811 45.47 96.3707 42.409 94.8195 39.7099C93.2683 37.0108 91.0314 34.7695 88.3354 33.213C88.4019 32.4489 88.4019 31.6805 88.3354 30.9164C88.3354 27.4023 86.9394 24.0321 84.4546 21.5472C81.9697 19.0623 78.5995 17.6664 75.0854 17.6664H74.2904C73.5549 15.6273 72.3304 13.7997 70.7241 12.3441C69.1179 10.8884 67.1791 9.84902 65.0776 9.31712C62.9762 8.78522 60.7763 8.77703 58.671 9.29326C56.5657 9.80948 54.6191 10.8344 53.0021 12.278C51.3851 10.8344 49.4385 9.80948 47.3332 9.29326C45.2278 8.77703 43.028 8.78522 40.9266 9.31712C38.8251 9.84902 36.8863 10.8884 35.28 12.3441C33.6738 13.7997 32.4492 15.6273 31.7138 17.6664H30.9188C27.4046 17.6664 24.0344 19.0623 21.5496 21.5472C19.0647 24.0321 17.6688 27.4023 17.6688 30.9164C17.6023 31.6805 17.6023 32.4489 17.6688 33.213C15.1621 34.6299 13.0398 36.6379 11.4865 39.0624C9.93318 41.4868 8.996 44.2541 8.75653 47.1235C8.51705 49.9929 8.98253 52.8773 10.1125 55.5257C11.2424 58.1741 13.0025 60.5061 15.2396 62.3189C13.7921 65.0186 13.0715 68.0484 13.1485 71.1107C13.2255 74.173 14.0974 77.1627 15.6787 79.7863C17.26 82.41 19.4963 84.5773 22.1681 86.0757C24.84 87.5741 27.8555 88.352 30.9188 88.333H31.7138C32.4492 90.3722 33.6738 92.1997 35.28 93.6554C36.8863 95.111 38.8251 96.1504 40.9266 96.6823C43.028 97.2142 45.2278 97.2224 47.3332 96.7062C49.4385 96.1899 51.3851 95.165 53.0021 93.7214C54.6191 95.165 56.5657 96.1899 58.671 96.7062C60.7763 97.2224 62.9762 97.2142 65.0776 96.6823C67.1791 96.1504 69.1179 95.111 70.7241 93.6554C72.3304 92.1997 73.5549 90.3722 74.2904 88.333H75.0854C78.13 88.3138 81.1178 87.5081 83.7593 85.994C86.4007 84.48 88.606 82.309 90.1613 79.6916C91.7167 77.0743 92.5692 74.0994 92.6362 71.0555C92.7032 68.0117 91.9824 65.0021 90.5438 62.3189C92.6038 60.6695 94.2682 58.5796 95.4147 56.2026C96.5611 53.8256 97.1605 51.222 97.1688 48.583ZM48.5854 37.7622C47.6235 37.212 46.6192 36.7394 45.5821 36.3489C44.4693 35.974 43.2531 36.0566 42.2012 36.5784C41.1493 37.1002 40.3478 38.0186 39.9729 39.1314C39.5981 40.2442 39.6807 41.4603 40.2025 42.5122C40.7243 43.5642 41.6426 44.3657 42.7554 44.7405C44.4556 45.3552 45.9262 46.4767 46.9688 47.9536C48.0113 49.4306 48.5756 51.1919 48.5854 52.9997V59.8455C47.6235 59.2953 46.6192 58.8227 45.5821 58.4322C44.4693 58.0574 43.2531 58.1399 42.2012 58.6618C41.1493 59.1836 40.3478 60.1019 39.9729 61.2147C39.5981 62.3275 39.6807 63.5436 40.2025 64.5956C40.7243 65.6475 41.6426 66.449 42.7554 66.8239C44.4556 67.4385 45.9262 68.56 46.9688 70.037C48.0113 71.5139 48.5756 73.2752 48.5854 75.083V83.9164C48.5854 85.0878 48.1201 86.2112 47.2918 87.0394C46.4635 87.8677 45.3401 88.333 44.1688 88.333C43.3143 88.3275 42.4798 88.0741 41.7664 87.6038C41.053 87.1334 40.4914 86.4662 40.1496 85.683C40.8902 85.2485 41.5986 84.7614 42.2696 84.2255C42.7162 83.8543 43.0853 83.3988 43.3559 82.885C43.6264 82.3711 43.7931 81.809 43.8464 81.2307C43.8997 80.6524 43.8386 80.0693 43.6666 79.5147C43.4946 78.96 43.215 78.4446 42.8438 77.998C42.4725 77.5514 42.017 77.1823 41.5032 76.9118C40.9893 76.6412 40.4272 76.4745 39.8489 76.4212C39.2706 76.3679 38.6875 76.429 38.1329 76.601C37.5782 76.7731 37.0629 77.0527 36.6163 77.4239C35.0215 78.7664 33.0034 79.5017 30.9188 79.4997C28.576 79.4997 26.3292 78.5691 24.6726 76.9125C23.0161 75.2559 22.0854 73.0091 22.0854 70.6664C22.1066 69.0039 22.5964 67.3812 23.4988 65.9847C24.49 66.1625 25.4951 66.2512 26.5021 66.2497C27.6735 66.2497 28.7969 65.7844 29.6251 64.9561C30.4534 64.1278 30.9188 63.0044 30.9188 61.833C30.9188 60.6617 30.4534 59.5383 29.6251 58.71C28.7969 57.8817 27.6735 57.4164 26.5021 57.4164C25.4588 57.4224 24.4241 57.2274 23.4546 56.8422C21.8661 56.2693 20.4751 55.2531 19.4464 53.914C18.4177 52.5749 17.7944 50.9689 17.6503 49.2865C17.5062 47.604 17.8474 45.9155 18.6335 44.4209C19.4195 42.9264 20.6175 41.6885 22.0854 40.8539C22.713 41.4313 23.3932 41.9488 24.1171 42.3997C25.1362 42.9854 26.3462 43.1423 27.481 42.8358C28.6157 42.5293 29.5822 41.7846 30.1679 40.7655C30.7536 39.7464 30.9105 38.5364 30.604 37.4017C30.2975 36.2669 29.5528 35.3004 28.5338 34.7147C27.912 34.3717 27.3935 33.8684 27.0321 33.2572C26.6237 32.5481 26.439 31.7322 26.5021 30.9164C26.5021 29.745 26.9674 28.6216 27.7957 27.7933C28.624 26.965 29.7474 26.4997 30.9188 26.4997C31.2264 26.4568 31.5386 26.4568 31.8463 26.4997C32.0801 27.2093 32.3604 27.9028 32.6854 28.5755C32.974 29.0816 33.3598 29.5256 33.8206 29.882C34.2815 30.2384 34.8083 30.5 35.3707 30.6519C35.9332 30.8038 36.5201 30.8429 37.0977 30.767C37.6753 30.6911 38.2322 30.5017 38.7363 30.2097C39.7155 29.6206 40.4282 28.6748 40.7247 27.5712C41.0212 26.4675 40.8784 25.2919 40.3263 24.2914C39.9557 23.6139 39.7584 22.8552 39.7521 22.083C39.7521 20.9117 40.2174 19.7883 41.0457 18.96C41.874 18.1317 42.9974 17.6664 44.1688 17.6664C45.3401 17.6664 46.4635 18.1317 47.2918 18.96C48.1201 19.7883 48.5854 20.9117 48.5854 22.083V37.7622ZM82.5496 56.8422C81.58 57.2274 80.5454 57.4224 79.5021 57.4164C78.3307 57.4164 77.2073 57.8817 76.379 58.71C75.5507 59.5383 75.0854 60.6617 75.0854 61.833C75.0854 63.0044 75.5507 64.1278 76.379 64.9561C77.2073 65.7844 78.3307 66.2497 79.5021 66.2497C80.5091 66.2512 81.5142 66.1625 82.5054 65.9847C83.4077 67.3812 83.8976 69.0039 83.9188 70.6664C83.9188 73.0091 82.9881 75.2559 81.3315 76.9125C79.675 78.5691 77.4282 79.4997 75.0854 79.4997C73.0008 79.5017 70.9826 78.7664 69.3879 77.4239C68.486 76.6742 67.3231 76.3135 66.1553 76.4212C64.9874 76.5289 63.9101 77.0961 63.1604 77.998C62.4107 78.9 62.0501 80.0628 62.1577 81.2307C62.2654 82.3986 62.8326 83.4759 63.7346 84.2255C64.4055 84.7614 65.114 85.2485 65.8546 85.683C65.5128 86.4662 64.9512 87.1334 64.2378 87.6038C63.5244 88.0741 62.6899 88.3275 61.8354 88.333C60.664 88.333 59.5407 87.8677 58.7124 87.0394C57.8841 86.2112 57.4188 85.0878 57.4188 83.9164V75.083C57.4286 73.2752 57.9928 71.5139 59.0354 70.037C60.078 68.56 61.5486 67.4385 63.2488 66.8239C64.3616 66.449 65.2799 65.6475 65.8017 64.5956C66.3235 63.5436 66.4061 62.3275 66.0313 61.2147C65.6564 60.1019 64.8549 59.1836 63.8029 58.6618C62.751 58.1399 61.5349 58.0574 60.4221 58.4322C59.385 58.8227 58.3807 59.2953 57.4188 59.8455V52.9997C57.4286 51.1919 57.9928 49.4306 59.0354 47.9536C60.078 46.4767 61.5486 45.3552 63.2488 44.7405C64.3616 44.3657 65.2799 43.5642 65.8017 42.5122C66.3235 41.4603 66.4061 40.2442 66.0313 39.1314C65.6564 38.0186 64.8549 37.1002 63.8029 36.5784C62.751 36.0566 61.5349 35.974 60.4221 36.3489C59.385 36.7394 58.3807 37.212 57.4188 37.7622V22.083C57.4188 20.9117 57.8841 19.7883 58.7124 18.96C59.5407 18.1317 60.664 17.6664 61.8354 17.6664C63.0068 17.6664 64.1302 18.1317 64.9585 18.96C65.7868 19.7883 66.2521 20.9117 66.2521 22.083C66.2458 22.8552 66.0485 23.6139 65.6779 24.2914C65.3841 24.7928 65.1921 25.3474 65.113 25.9232C65.0338 26.499 65.0692 27.0847 65.2169 27.6468C65.3646 28.209 65.6218 28.7364 65.9738 29.1989C66.3257 29.6615 66.7655 30.05 67.2679 30.3422C67.772 30.6342 68.3289 30.8236 68.9065 30.8995C69.4841 30.9754 70.071 30.9363 70.6334 30.7844C71.1959 30.6325 71.7227 30.3709 72.1835 30.0145C72.6444 29.6581 73.0302 29.2141 73.3188 28.708C73.6493 27.9923 73.9297 27.2544 74.1579 26.4997C74.4656 26.4568 74.7777 26.4568 75.0854 26.4997C76.2568 26.4997 77.3802 26.965 78.2085 27.7933C79.0368 28.6216 79.5021 29.745 79.5021 30.9164C79.4953 31.7822 79.2342 32.6269 78.7513 33.3455C78.39 33.9187 77.8883 34.39 77.2938 34.7147C76.2747 35.3004 75.53 36.2669 75.2235 37.4017C74.917 38.5364 75.0739 39.7464 75.6596 40.7655C76.2453 41.7846 77.2118 42.5293 78.3466 42.8358C79.4813 43.1423 80.6913 42.9854 81.7104 42.3997C82.5034 41.9709 83.2444 41.4522 83.9188 40.8539C85.3917 41.6738 86.5993 42.898 87.3989 44.3821C88.1986 45.8661 88.5568 47.548 88.4314 49.2291C88.3061 50.9102 87.7023 52.5203 86.6913 53.8693C85.6804 55.2183 84.3045 56.2499 82.7263 56.8422H82.5496Z" fill="black"/>
</svg>
