<svg width="96" height="96" viewBox="0 0 96 96" fill="none" xmlns="http://www.w3.org/2000/svg">
<path d="M88.0019 43.9997C88.0131 41.1804 87.2791 38.4081 85.8742 35.9637C84.4694 33.5192 82.4436 31.4894 80.0019 30.0797C80.0621 29.3877 80.0621 28.6918 80.0019 27.9997C80.0019 24.8171 78.7376 21.7649 76.4872 19.5145C74.2367 17.264 71.1845 15.9997 68.0019 15.9997H67.2819C66.6158 14.153 65.5067 12.4979 64.052 11.1795C62.5973 9.86117 60.8414 8.91987 58.9382 8.43815C57.035 7.95643 55.0427 7.94901 53.136 8.41653C51.2293 8.88406 49.4664 9.81226 48.0019 11.1197C46.5374 9.81226 44.7745 8.88406 42.8678 8.41653C40.9611 7.94901 38.9687 7.95643 37.0656 8.43815C35.1624 8.91987 33.4064 9.86117 31.9517 11.1795C30.497 12.4979 29.388 14.153 28.7219 15.9997H28.0019C24.8193 15.9997 21.767 17.264 19.5166 19.5145C17.2662 21.7649 16.0019 24.8171 16.0019 27.9997C15.9417 28.6918 15.9417 29.3877 16.0019 30.0797C13.7317 31.3629 11.8096 33.1815 10.4029 35.3772C8.99609 37.5729 8.14732 40.0792 7.93044 42.6779C7.71355 45.2766 8.13512 47.8889 9.15845 50.2874C10.1818 52.6859 11.7758 54.798 13.8019 56.4397C12.491 58.8848 11.8383 61.6287 11.9081 64.4021C11.9778 67.1756 12.7675 69.8832 14.1996 72.2593C15.6317 74.6354 17.657 76.5983 20.0768 77.9553C22.4966 79.3124 25.2276 80.0169 28.0019 79.9997H28.7219C29.388 81.8465 30.497 83.5016 31.9517 84.8199C33.4064 86.1383 35.1624 87.0796 37.0656 87.5613C38.9687 88.043 40.9611 88.0505 42.8678 87.5829C44.7745 87.1154 46.5374 86.1872 48.0019 84.8797C49.4664 86.1872 51.2293 87.1154 53.136 87.5829C55.0427 88.0505 57.035 88.043 58.9382 87.5613C60.8414 87.0796 62.5973 86.1383 64.052 84.8199C65.5067 83.5016 66.6158 81.8465 67.2819 79.9997H68.0019C70.7592 79.9823 73.4652 79.2526 75.8575 77.8814C78.2497 76.5101 80.247 74.544 81.6556 72.1735C83.0641 69.8031 83.8362 67.1089 83.8969 64.3522C83.9576 61.5955 83.3048 58.8699 82.0019 56.4397C83.8676 54.946 85.375 53.0532 86.4133 50.9005C87.4516 48.7477 87.9944 46.3898 88.0019 43.9997ZM44.0019 34.1997C43.1307 33.7014 42.2211 33.2734 41.2819 32.9197C40.2741 32.5803 39.1727 32.655 38.22 33.1276C37.2673 33.6002 36.5414 34.4319 36.2019 35.4397C35.8624 36.4476 35.9372 37.549 36.4098 38.5016C36.8824 39.4543 37.7141 40.1803 38.7219 40.5197C40.2617 41.0764 41.5936 42.0921 42.5378 43.4297C43.482 44.7673 43.993 46.3625 44.0019 47.9997V54.1997C43.1307 53.7014 42.2211 53.2734 41.2819 52.9197C40.2741 52.5803 39.1727 52.655 38.22 53.1276C37.2673 53.6002 36.5414 54.4319 36.2019 55.4397C35.8624 56.4476 35.9372 57.549 36.4098 58.5016C36.8824 59.4543 37.7141 60.1803 38.7219 60.5197C40.2617 61.0764 41.5936 62.0921 42.5378 63.4297C43.482 64.7673 43.993 66.3625 44.0019 67.9997V75.9997C44.0019 77.0606 43.5805 78.078 42.8303 78.8282C42.0802 79.5783 41.0628 79.9997 40.0019 79.9997C39.228 79.9947 38.4722 79.7653 37.8262 79.3393C37.1801 78.9133 36.6714 78.309 36.3619 77.5997C37.0326 77.2062 37.6742 76.765 38.2819 76.2797C38.6864 75.9435 39.0207 75.531 39.2657 75.0656C39.5107 74.6002 39.6617 74.0912 39.71 73.5674C39.7583 73.0437 39.7029 72.5156 39.5471 72.0133C39.3913 71.5109 39.1381 71.0442 38.8019 70.6397C38.4657 70.2353 38.0531 69.901 37.5878 69.6559C37.1224 69.4109 36.6133 69.2599 36.0896 69.2116C35.5659 69.1634 35.0378 69.2187 34.5354 69.3745C34.0331 69.5303 33.5664 69.7835 33.1619 70.1197C31.7176 71.3356 29.8898 72.0016 28.0019 71.9997C25.8802 71.9997 23.8453 71.1569 22.345 69.6566C20.8447 68.1563 20.0019 66.1215 20.0019 63.9997C20.021 62.4941 20.4647 61.0244 21.2819 59.7597C22.1796 59.9207 23.0899 60.0011 24.0019 59.9997C25.0628 59.9997 26.0802 59.5783 26.8303 58.8282C27.5805 58.078 28.0019 57.0606 28.0019 55.9997C28.0019 54.9389 27.5805 53.9214 26.8303 53.1713C26.0802 52.4212 25.0628 51.9997 24.0019 51.9997C23.057 52.0052 22.12 51.8286 21.2419 51.4797C19.8033 50.9609 18.5435 50.0405 17.6119 48.8278C16.6802 47.615 16.1157 46.1605 15.9852 44.6368C15.8547 43.113 16.1637 41.5838 16.8756 40.2303C17.5875 38.8768 18.6724 37.7556 20.0019 36.9997C20.5703 37.5227 21.1863 37.9914 21.8419 38.3997C22.7648 38.9302 23.8607 39.0722 24.8884 38.7947C25.9161 38.5171 26.7915 37.8427 27.3219 36.9197C27.8523 35.9968 27.9944 34.9009 27.7168 33.8732C27.4393 32.8455 26.7648 31.9702 25.8419 31.4397C25.2788 31.1291 24.8092 30.6733 24.4819 30.1197C24.1121 29.4775 23.9448 28.7386 24.0019 27.9997C24.0019 26.9389 24.4233 25.9215 25.1735 25.1713C25.9236 24.4212 26.941 23.9997 28.0019 23.9997C28.2805 23.9609 28.5632 23.9609 28.8419 23.9997C29.0536 24.6424 29.3075 25.2704 29.6019 25.8797C29.8632 26.3381 30.2126 26.7402 30.63 27.0629C31.0474 27.3857 31.5245 27.6227 32.0339 27.7602C32.5432 27.8978 33.0748 27.9332 33.5979 27.8645C34.121 27.7958 34.6254 27.6242 35.0819 27.3597C35.9687 26.8262 36.6142 25.9696 36.8827 24.9701C37.1513 23.9706 37.0219 22.9059 36.5219 21.9997C36.1863 21.3862 36.0076 20.6991 36.0019 19.9997C36.0019 18.9389 36.4233 17.9215 37.1735 17.1713C37.9236 16.4212 38.941 15.9997 40.0019 15.9997C41.0628 15.9997 42.0802 16.4212 42.8303 17.1713C43.5805 17.9215 44.0019 18.9389 44.0019 19.9997V34.1997ZM74.7619 51.4797C73.8838 51.8286 72.9467 52.0052 72.0019 51.9997C70.941 51.9997 69.9236 52.4212 69.1735 53.1713C68.4233 53.9214 68.0019 54.9389 68.0019 55.9997C68.0019 57.0606 68.4233 58.078 69.1735 58.8282C69.9236 59.5783 70.941 59.9997 72.0019 59.9997C72.9139 60.0011 73.8242 59.9207 74.7219 59.7597C75.5391 61.0244 75.9828 62.4941 76.0019 63.9997C76.0019 66.1215 75.159 68.1563 73.6587 69.6566C72.1585 71.1569 70.1236 71.9997 68.0019 71.9997C66.1139 72.0016 64.2862 71.3356 62.8419 70.1197C62.025 69.4408 60.9719 69.1141 59.9142 69.2116C58.8565 69.3092 57.8808 69.8229 57.2019 70.6397C56.5229 71.4566 56.1963 72.5097 56.2938 73.5674C56.3913 74.6251 56.905 75.6008 57.7219 76.2797C58.3295 76.765 58.9712 77.2062 59.6419 77.5997C59.3324 78.309 58.8237 78.9133 58.1776 79.3393C57.5315 79.7653 56.7758 79.9947 56.0019 79.9997C54.941 79.9997 53.9236 79.5783 53.1735 78.8282C52.4233 78.078 52.0019 77.0606 52.0019 75.9997V67.9997C52.0108 66.3625 52.5218 64.7673 53.466 63.4297C54.4102 62.0921 55.7421 61.0764 57.2819 60.5197C58.2897 60.1803 59.1214 59.4543 59.594 58.5016C60.0666 57.549 60.1414 56.4476 59.8019 55.4397C59.4624 54.4319 58.7365 53.6002 57.7838 53.1276C56.8311 52.655 55.7297 52.5803 54.7219 52.9197C53.7826 53.2734 52.8731 53.7014 52.0019 54.1997V47.9997C52.0108 46.3625 52.5218 44.7673 53.466 43.4297C54.4102 42.0921 55.7421 41.0764 57.2819 40.5197C58.2897 40.1803 59.1214 39.4543 59.594 38.5016C60.0666 37.549 60.1414 36.4476 59.8019 35.4397C59.4624 34.4319 58.7365 33.6002 57.7838 33.1276C56.8311 32.655 55.7297 32.5803 54.7219 32.9197C53.7826 33.2734 52.8731 33.7014 52.0019 34.1997V19.9997C52.0019 18.9389 52.4233 17.9215 53.1735 17.1713C53.9236 16.4212 54.941 15.9997 56.0019 15.9997C57.0628 15.9997 58.0802 16.4212 58.8303 17.1713C59.5805 17.9215 60.0019 18.9389 60.0019 19.9997C59.9962 20.6991 59.8175 21.3862 59.4819 21.9997C59.2158 22.4539 59.0419 22.9561 58.9702 23.4776C58.8986 23.9991 58.9306 24.5296 59.0643 25.0387C59.1981 25.5477 59.4311 26.0254 59.7498 26.4443C60.0686 26.8632 60.4669 27.2151 60.9219 27.4797C61.3784 27.7442 61.8828 27.9158 62.4059 27.9845C62.929 28.0532 63.4605 28.0178 63.9699 27.8802C64.4793 27.7427 64.9564 27.5057 65.3738 27.1829C65.7912 26.8602 66.1406 26.4581 66.4019 25.9997C66.7013 25.3515 66.9552 24.6832 67.1619 23.9997C67.4405 23.9609 67.7232 23.9609 68.0019 23.9997C69.0628 23.9997 70.0802 24.4212 70.8303 25.1713C71.5805 25.9215 72.0019 26.9389 72.0019 27.9997C71.9958 28.7839 71.7593 29.5489 71.3219 30.1997C70.9947 30.7188 70.5404 31.1456 70.0019 31.4397C69.0789 31.9702 68.4045 32.8455 68.1269 33.8732C67.8494 34.9009 67.9915 35.9968 68.5219 36.9197C69.0523 37.8427 69.9277 38.5171 70.9554 38.7947C71.9831 39.0722 73.0789 38.9302 74.0019 38.3997C74.7201 38.0113 75.3911 37.5416 76.0019 36.9997C77.3359 37.7423 78.4296 38.851 79.1537 40.1951C79.8779 41.5391 80.2024 43.0623 80.0889 44.5848C79.9753 46.1073 79.4285 47.5656 78.5129 48.7873C77.5973 50.009 76.3513 50.9433 74.9219 51.4797H74.7619Z" fill="black"/>
</svg>
